<svg width="28" height="28" viewBox="0 0 28 28" fill="none" xmlns="http://www.w3.org/2000/svg">
  <rect width="28" height="28" rx="6" fill="url(#gradient)"/>
  
  <!-- Book icon -->
  <path d="M6 8C6 7.44772 6.44772 7 7 7H21C21.5523 7 22 7.44772 22 8V20C22 20.5523 21.5523 21 21 21H7C6.44772 21 6 20.5523 6 20V8Z" fill="white" fill-opacity="0.9"/>
  
  <!-- Book pages -->
  <path d="M8 9H20V19H8V9Z" fill="url(#gradient)" fill-opacity="0.8"/>
  
  <!-- Text lines -->
  <rect x="9" y="11" width="10" height="1" rx="0.5" fill="white" fill-opacity="0.7"/>
  <rect x="9" y="13" width="8" height="1" rx="0.5" fill="white" fill-opacity="0.7"/>
  <rect x="9" y="15" width="6" height="1" rx="0.5" fill="white" fill-opacity="0.7"/>
  
  <!-- LM text -->
  <text x="14" y="24" text-anchor="middle" font-family="Arial, sans-serif" font-size="6" font-weight="bold" fill="white" fill-opacity="0.9">LM</text>
  
  <defs>
    <linearGradient id="gradient" x1="0%" y1="0%" x2="100%" y2="100%">
      <stop offset="0%" style="stop-color:#3B82F6"/>
      <stop offset="100%" style="stop-color:#8B5CF6"/>
    </linearGradient>
  </defs>
</svg>